<?xml version="1.0" encoding="utf-8"?>
<!-- Generator: Adobe Illustrator 27.4.1, SVG Export Plug-In . SVG Version: 6.00 Build 0)  -->
<svg version="1.1" id="Layer_1" xmlns="http://www.w3.org/2000/svg" xmlns:xlink="http://www.w3.org/1999/xlink" x="0px" y="0px"
	 viewBox="0 0 24 24" style="enable-background:new 0 0 24 24;" xml:space="preserve">
<path d="M12,0C5.37,0,0,5.37,0,12s5.37,12,12,12s12-5.37,12-12S18.63,0,12,0z M10,16H8v-6h2V16z M9,9.11c-0.61,0-1.1-0.5-1.1-1.11
	c0-0.61,0.49-1.11,1.1-1.11s1.1,0.5,1.1,1.11C10.1,8.61,9.61,9.11,9,9.11z M17,16h-2v-2.86c0-1.88-2-1.72-2,0V16h-2v-6h2v1.09
	c0.87-1.62,4-1.74,4,1.55V16z"/>
</svg>
