<?xml version="1.0" encoding="utf-8"?>
<!-- Generator: Adobe Illustrator 27.4.1, SVG Export Plug-In . SVG Version: 6.00 Build 0)  -->
<svg version="1.1" id="Layer_1" xmlns="http://www.w3.org/2000/svg" xmlns:xlink="http://www.w3.org/1999/xlink" x="0px" y="0px"
	 viewBox="0 0 24 24" style="enable-background:new 0 0 24 24;" xml:space="preserve">
<path d="M12,0C5.37,0,0,5.37,0,12s5.37,12,12,12s12-5.37,12-12S18.63,0,12,0z M16.44,16.89c-2.1,0.14-6.78,0.14-8.88,0
	C5.28,16.74,5.02,15.62,5,12c0.02-3.63,0.28-4.74,2.56-4.89c2.1-0.14,6.78-0.14,8.88,0C18.72,7.26,18.98,8.38,19,12
	C18.98,15.63,18.72,16.74,16.44,16.89z M10,9.66L14.92,12L10,14.34V9.66z"/>
</svg>
